<?xml version="1.0" encoding="UTF-8" standalone="no"?>
<!-- Created with Inkscape (http://www.inkscape.org/) -->

<svg
   width="1159.2397"
   height="380.6167"
   viewBox="0 0 1159.2397 380.6167"
   version="1.1"
   id="svg1"
   xmlns="http://www.w3.org/2000/svg"
   xmlns:svg="http://www.w3.org/2000/svg">
  <defs
     id="defs1" />
  <g
     id="layer1"
     transform="translate(-663.44814,-247.21354)">
    <g
       id="g1">
      <path
         style="font-weight:800;font-size:457.472px;font-family:'PP Editorial Old';-inkscape-font-specification:'PP Editorial Old, Ultra-Bold';font-variant-ligatures:no-common-ligatures discretionary-ligatures;letter-spacing:-7.775px;word-spacing:-2.05148px;fill:#5c4b3a;stroke-width:38.1226"
         d="m 777.81612,627.83023 c 36.59776,0 69.07827,-13.26668 89.20704,-38.88512 15.09657,-15.09657 24.70348,-33.85292 37.97017,-33.85292 9.14944,0 19.21382,7.31955 34.3104,24.70348 v -0.45747 c 21.04371,29.73568 54.89664,48.49203 99.27147,48.49203 76.8552,0 123.5174,-53.98169 123.5174,-133.12434 0,-72.28058 -46.6622,-129.46458 -123.5174,-129.46458 -77.31281,0 -123.51749,53.52423 -123.51749,132.66688 0,4.11725 0,8.23449 0.45748,12.35174 -0.45748,27.90579 -4.11725,35.22535 -12.35175,35.22535 -7.31955,0 -11.89427,-1.82989 -13.26668,-16.92647 0.45747,-4.11725 0.45747,-8.23449 0.45747,-12.35174 0,-54.43917 -28.82074,-84.63232 -85.08979,-126.26227 -49.86445,-36.59776 -82.80243,-63.13113 -82.80243,-92.86681 0,-18.29888 13.26669,-40.71501 44.83225,-40.71501 58.09895,0 77.77024,37.05523 98.81395,108.42086 1.82989,5.48967 3.65978,7.77703 6.40461,7.77703 2.74483,0 3.2023,-2.74484 2.28736,-9.60692 -5.03219,-38.42764 -5.48966,-85.08979 -5.48966,-105.21855 0,-9.14944 -3.20231,-10.06439 -7.31956,-10.06439 -6.86208,0 -17.38393,3.20231 -30.19315,3.20231 -10.52185,0 -31.56556,-3.65978 -60.84377,-3.65978 -57.184,0 -107.50592,34.76787 -107.50592,102.01625 0,53.9817 37.51271,83.71738 91.95187,124.43238 35.68282,26.99085 75.94035,60.84378 75.94035,102.9312 0,17.84141 -12.80921,42.08742 -45.28972,42.08742 -59.01389,0 -87.83463,-32.48051 -111.1657,-134.95423 -0.91494,-3.65978 -1.82989,-6.40461 -5.48966,-6.40461 -2.28736,0 -3.2023,2.28736 -3.2023,5.48966 3.65977,87.83462 5.94713,121.23008 5.48966,136.32666 0,6.86207 2.74483,8.69196 6.86208,8.69196 8.23449,0 19.67129,-3.65977 33.39545,-3.65977 11.89428,0 38.42765,3.65977 65.87597,3.65977 z M 996.48773,434.31958 c 0,-35.22534 6.40457,-54.43916 21.04367,-54.43916 37.5127,0 63.1312,113.91052 63.1312,180.70143 0,35.22534 -6.4046,53.9817 -21.0437,53.9817 -41.63,0 -63.13117,-113.45306 -63.13117,-180.24397 z m 279.51917,193.51065 c 54.8967,0 90.122,-35.22534 102.0163,-107.50591 0.9149,-5.0322 0,-6.40461 -2.2874,-6.40461 -2.2873,0 -3.2023,0.91494 -4.5747,5.03219 -9.6069,37.5127 -35.2253,52.60928 -53.0667,52.60928 -45.2898,0 -64.0461,-43.00237 -64.0461,-102.01625 0,-41.62995 10.5218,-91.03693 35.6828,-91.03693 9.6069,0 21.5012,6.40461 21.5012,27.90579 0,14.63911 -12.3518,23.33107 -12.3518,37.05523 0,17.84141 13.7242,27.90579 34.3104,27.90579 22.8736,0 39.8001,-16.46899 39.8001,-40.715 0,-41.62995 -40.2575,-65.4185 -81.43,-65.4185 -75.9404,0 -120.3151,57.64147 -120.3151,137.69907 0,76.39782 40.2575,124.88985 104.761,124.88985 z m 423.1635,0 c 76.8553,0 123.5175,-53.98169 123.5175,-133.12434 0,-72.28058 -46.6622,-129.46458 -123.5175,-129.46458 -77.3127,0 -123.5174,53.52423 -123.5174,132.66688 0,72.73804 46.2047,129.92204 123.5174,129.92204 z m -328.0074,-9.60691 c 0,3.20231 2.2874,4.11725 8.2345,4.11725 21.5012,0 44.8323,-1.82989 60.3863,-1.82989 h 40.2576 c 22.8736,0 59.4713,1.82989 90.5794,1.82989 9.1495,0 11.8943,-1.37242 11.8943,-4.57472 0,-3.2023 -2.7448,-4.11725 -11.8943,-4.11725 -43.4598,0 -65.8759,-10.06438 -65.8759,-57.184 v -67.70585 c 0,-53.98169 37.0552,-155.99795 99.2714,-155.99795 29.7357,0 31.5655,18.29888 56.269,18.29888 22.4162,0 34.3104,-13.72416 34.3104,-35.68281 0,-21.04371 -19.2138,-34.76787 -50.3219,-34.76787 -62.6737,0 -97.4415,51.69433 -130.3795,129.46457 -5.0322,13.26669 -8.2345,12.35174 -7.3196,-1.37242 1.3725,-16.01152 3.2023,-23.78854 3.2023,-34.3104 0,-4.57472 -1.8298,-9.14944 -9.6069,-9.14944 h -0.4574 c -25.6185,0 -79.1427,18.75635 -116.1979,23.33107 -5.9472,0.91495 -8.2345,2.28736 -8.2345,5.48967 0,2.74483 1.8299,4.11725 6.4046,4.11725 5.4897,0 15.0966,-2.28736 27.4483,-2.28736 9.1494,0 14.6391,5.94713 14.6391,28.82073 l -0.4575,131.75193 c 0,47.11962 -14.1816,57.184 -44.3747,57.184 -5.4897,0 -7.7771,1.37242 -7.7771,4.57472 z m 285.92,-183.90374 c 0,-35.22534 6.4046,-54.43916 21.0437,-54.43916 37.5127,0 63.1312,113.91052 63.1312,180.70143 0,35.22534 -6.4046,53.9817 -21.0437,53.9817 -41.63,0 -63.1312,-113.45306 -63.1312,-180.24397 z"
         id="text1"
         aria-label="Socro  " />
    </g>
  </g>
</svg>
